<svg width="236" height="40" viewBox="0 0 236 40" fill="none" xmlns="http://www.w3.org/2000/svg">
<path d="M74.9755 18.0397C74.453 17.4194 74.7516 16.8983 75.0502 16.3524C76.0455 14.4665 77.0409 12.5558 78.0363 10.67C78.1358 10.4715 78.2353 10.273 78.3598 10.0248C77.5884 9.85112 76.817 9.92556 75.9958 9.85112C76.4935 8.90819 76.9663 7.99008 77.4391 7.09678H89.6073C89.7815 7.44417 89.5825 7.66749 89.458 7.91563C88.189 10.1737 86.9199 12.4566 85.6757 14.7146C85.4268 15.1365 85.2029 15.5831 84.954 16.005C84.8545 16.1787 84.755 16.3524 84.6803 16.5261C84.307 17.4194 84.6057 17.8908 85.601 17.9156C86.3724 17.9404 87.1189 17.7419 87.8157 17.5186C89.1594 17.0471 90.5032 16.5509 91.8469 16.0546C92.6432 15.7568 93.1906 15.1861 93.5888 14.4417C94.7583 12.1836 95.9528 9.95037 97.0974 7.69231C97.3463 7.19603 97.6449 6.99752 98.1923 6.99752C100.83 7.04715 103.443 7.04715 106.081 7.07196C106.23 7.07196 106.379 7.09678 106.628 7.12159C106.528 7.3201 106.454 7.46898 106.354 7.61787C104.762 10.5459 103.144 13.4491 101.552 16.3772C101.104 17.196 101.402 17.8164 102.298 18.0149C102.572 18.0645 102.846 18.1141 103.119 18.1141C104.687 18.1141 106.255 18.1141 107.847 18.139C108.245 18.139 108.445 18.0149 108.644 17.6675C111.331 12.928 114.019 8.18859 116.706 3.44913C116.781 3.32506 116.83 3.17618 116.955 2.95285C115.462 2.87841 114.019 2.92804 112.575 2.90323C111.157 2.90323 109.714 2.90323 108.221 2.90323C108.295 2.6799 108.295 2.55583 108.37 2.45658C108.743 1.81141 109.141 1.16625 109.49 0.496278C109.664 0.198511 109.863 0.099256 110.186 0.099256C112.127 0.12407 114.093 0.124071 116.034 0.148885C120.165 0.173699 124.271 0.223325 128.402 0.248139C128.625 0.248139 128.874 0.248139 129.073 0.248139C129.272 0.595533 129.098 0.818859 128.949 1.067C127.929 2.92804 126.884 4.76427 125.863 6.62531C123.898 10.1489 121.932 13.6973 119.966 17.2208C119.841 17.4442 119.717 17.6675 119.543 17.9901C119.817 18.0149 119.991 18.0397 120.165 18.0397C121.31 18.0397 122.429 18.0397 123.574 18.0645C125.191 18.0893 126.809 18.1141 128.402 18.139C128.675 18.139 128.949 18.1886 129.223 17.9156C129.073 17.7667 128.949 17.5931 128.8 17.4442C128.277 16.9479 128.103 16.3275 128.327 15.6576C128.476 15.1861 128.65 14.7146 128.874 14.2928C129.745 12.7047 130.666 11.1166 131.562 9.52854C131.86 9.00745 132.308 8.66005 132.781 8.33747C133.826 7.64268 135.021 7.27047 136.24 7.1464C137.434 6.99752 138.654 6.92308 139.873 6.89826C142.411 6.87345 144.924 6.89826 147.463 6.89826C147.662 6.89826 147.886 6.92308 148.209 6.94789C148.06 7.22084 147.96 7.39454 147.861 7.54343C147.438 8.13896 146.99 8.73449 146.592 9.35484C146.368 9.67742 146.119 9.75186 145.746 9.75186C144.601 9.75186 143.481 9.75186 142.337 9.8263C141.69 9.87593 141.043 10 140.396 10.1737C139.45 10.4218 138.753 11.0422 138.28 11.8859C137.484 13.3251 136.688 14.7643 135.917 16.2283C135.27 17.4442 135.693 18.139 137.061 18.1638C139.127 18.1886 141.192 18.1638 143.257 18.1886C143.68 18.1886 143.904 18.0645 144.103 17.6923C146.716 12.928 149.329 8.16377 151.942 3.3995C152.016 3.27544 152.066 3.12655 152.191 2.87841C151.917 2.8536 151.718 2.82878 151.519 2.82878C149.354 2.82878 147.189 2.82878 145.024 2.82878H144.278C144.377 2.60546 144.402 2.45658 144.477 2.33251C144.8 1.73697 145.148 1.16625 145.472 0.57072C145.621 0.272954 145.845 0.148885 146.169 0.148885C147.537 0.173699 148.906 0.148885 150.299 0.148885C154.58 0.148885 158.86 0.148885 163.14 0.173698C163.364 0.173698 163.612 0.173698 163.961 0.173698C163.737 0.81886 163.388 1.29032 163.115 1.81142C162.841 2.33251 162.542 2.8536 162.244 3.37469C161.97 3.87097 161.671 4.36725 161.398 4.86353C161.099 5.38462 160.801 5.90571 160.527 6.4268C160.228 6.94789 159.954 7.44417 159.631 8.01489C159.905 8.13896 160.154 8.06452 160.353 8.01489C163.065 7.51861 165.777 7.02233 168.49 6.52606C169.336 6.37717 170.182 6.40199 171.028 6.62531C171.998 6.87345 172.77 7.41935 173.367 8.18859C173.939 8.90819 174.014 9.65261 173.541 10.4963C172.247 12.7295 170.978 14.9628 169.684 17.196C169.609 17.3201 169.535 17.4194 169.485 17.5682C169.385 17.8412 169.485 18.0397 169.759 18.1141C169.908 18.139 170.082 18.139 170.232 18.139C171.949 18.139 173.666 18.139 175.358 18.1886C175.83 18.1886 176.079 18.0397 176.278 17.6427C177.995 14.3176 179.737 10.9926 181.429 7.66749C181.653 7.22084 181.927 7.04715 182.425 7.04715C185.162 7.07196 187.874 7.04715 190.612 7.04715C190.736 7.04715 190.86 7.04715 190.96 7.04715C191.358 7.07196 191.458 7.19603 191.283 7.56824C191.184 7.76675 191.084 7.96526 190.985 8.16377C189.417 11.2655 187.849 14.3672 186.307 17.4442C186.207 17.6427 186.108 17.866 185.983 18.139C186.207 18.1638 186.356 18.1886 186.506 18.1886C188.347 18.1886 190.213 18.1886 192.055 18.1886C192.428 18.1886 192.627 18.0645 192.801 17.7419C194.046 15.3598 195.34 12.9777 196.584 10.5955C196.658 10.4715 196.708 10.3226 196.808 10.0744H194.27C194.369 9.85112 194.419 9.72705 194.469 9.60298C194.842 8.90819 195.215 8.2134 195.563 7.4938C195.713 7.17122 195.912 7.07196 196.26 7.07196C196.808 7.09677 197.33 7.07196 197.878 7.07196C200.615 7.07196 203.327 7.07196 206.065 7.07196C206.239 7.07196 206.413 7.07196 206.612 7.07196C207.06 7.09677 207.259 7.27047 207.284 7.71712C207.334 8.23822 207.284 8.73449 207.035 9.20596C206.985 9.30521 206.911 9.40447 206.811 9.60298C207.035 9.57816 207.184 9.57817 207.309 9.52854C210.419 8.61042 213.505 7.69231 216.615 6.77419C218.158 6.30273 219.601 6.50124 220.92 7.4938C222.189 8.43673 222.612 9.70223 222.214 11.2159C222.09 11.6625 221.941 12.134 221.741 12.5558C221.045 14.1439 220.348 15.7072 219.626 17.2705C219.552 17.469 219.452 17.6675 219.377 17.8412C219.626 18.1638 219.95 18.0893 220.224 18.0893C223.384 18.0893 226.544 18.0893 229.704 18.0893H234.432H235.104C235.054 18.6352 234.806 19.0323 234.631 19.4293C234.183 20.4963 234.432 20.2978 233.313 20.2978C226.42 20.2978 219.502 20.2978 212.609 20.273C212.086 20.273 211.564 20.2481 211.066 20.1985C210.27 20.1241 209.946 19.6774 210.096 18.8834C210.146 18.6104 210.245 18.3375 210.345 18.0893C211.29 15.9305 212.261 13.7717 213.231 11.6377C213.281 11.5136 213.331 11.3896 213.405 11.1663C213.206 11.1663 213.057 11.1663 212.908 11.1911C210.345 11.9355 207.806 12.6799 205.243 13.3995C204.97 13.4739 204.82 13.6476 204.696 13.8958C203.676 15.8561 202.631 17.7916 201.635 19.7519C201.436 20.1241 201.212 20.2978 200.764 20.2978C188.223 20.273 175.681 20.2978 163.164 20.273C162.866 20.273 162.567 20.2481 162.269 20.1985C161.024 19.9752 160.353 18.9578 160.651 17.7419C160.776 17.2208 161 16.7246 161.248 16.2531C161.771 15.2854 162.343 14.3672 162.891 13.4243C163.164 12.9777 163.438 12.531 163.662 12.0844C163.737 11.9355 163.737 11.7618 163.762 11.6129C163.612 11.6129 163.463 11.5881 163.314 11.6129C161.92 11.9851 160.502 12.3573 159.108 12.7295C158.412 12.928 157.69 13.1266 156.968 13.3003C156.52 13.3995 156.247 13.6476 156.048 14.0447C155.003 15.9305 153.933 17.8164 152.912 19.7022C152.688 20.1241 152.439 20.273 151.942 20.273C132.831 20.2481 113.745 20.273 94.6339 20.2481C94.4846 20.2481 94.3602 20.2481 94.2109 20.2481C93.3897 20.1985 93.0164 19.8511 92.8671 19.0074C92.8423 18.8834 92.7925 18.7593 92.7427 18.5608C92.4441 18.6352 92.1953 18.6849 91.9216 18.7593C90.105 19.2308 88.3134 19.727 86.4968 20.1737C85.9743 20.2978 85.4268 20.3474 84.9043 20.3474C76.4935 20.397 68.0827 20.4218 59.647 20.5211C58.0544 20.5459 57.1088 19.8015 56.437 18.5112C56.3374 18.3375 56.2628 18.1638 56.1632 17.9653C56.0139 18.0397 55.8895 18.0893 55.79 18.1638C54.0232 19.3548 52.0574 20 49.992 20.3474C47.852 20.7196 45.6871 20.8189 43.5222 20.5707C42.8254 20.4963 42.1535 20.3474 41.5065 20.0993C39.9886 19.5534 39.267 18.3871 39.3665 16.7742C39.4163 16.005 39.5656 15.2854 39.8642 14.5906C40.4365 13.2506 41.0337 11.9603 41.631 10.6203C41.7305 10.4218 41.8052 10.1985 41.9296 9.90075C41.631 9.90075 41.4319 9.90075 41.2577 9.90075C39.4163 9.90075 37.55 9.90075 35.7086 9.87593C35.3104 9.87593 35.1114 10 34.9123 10.3474C33.469 13.1266 31.976 15.8809 30.5078 18.6352C30.0599 19.4789 29.4129 20.0248 28.4424 20.1737C28.2683 20.1985 28.0941 20.1985 27.895 20.1985C18.9865 20.1985 10.078 20.1985 1.14468 20.1985H0.597229C0.821185 19.8759 0.970489 19.603 1.14468 19.3548C1.39352 19.0074 1.59259 18.5112 1.94097 18.3375C2.28934 18.139 2.78702 18.263 3.23493 18.2382C6.96754 18.139 10.7001 18.0149 14.4576 17.9156C15.4032 17.8908 16.3239 17.9156 17.2695 17.866C17.9663 17.8412 18.663 17.7668 19.3349 17.6427C20.4049 17.469 21.2758 16.9231 21.9228 16.0546C22.2712 15.6079 22.5698 15.1117 22.8187 14.5906C24.5605 10.8933 26.2775 7.19603 28.0194 3.49876C28.1189 3.30025 28.1687 3.10174 28.2683 2.8536C25.6057 2.65509 23.0177 2.80397 20.4298 2.63027C20.4547 2.45658 20.4547 2.35732 20.4796 2.28288C20.7533 1.68735 21.0768 1.11663 21.3505 0.521093C21.4998 0.198513 21.7735 0.148885 22.097 0.148885C24.4361 0.124071 26.7503 0.0744424 29.0894 0.0744424C32.4239 0.0496285 35.7335 0.0248139 39.0679 0C40.0384 0 40.0882 0.099256 39.6651 0.967742C38.7942 2.70472 37.9232 4.44169 37.0772 6.17866C36.9777 6.37717 36.903 6.57568 36.7537 6.84864C38.197 6.89826 39.5407 6.87345 40.8844 6.89826C42.2282 6.89826 43.5968 6.89826 44.9405 6.92308C46.2843 6.92308 47.6529 6.92308 48.9966 6.92308H53.003C53.202 7.29529 52.9781 7.51861 52.8537 7.76675C51.8334 9.62779 50.8132 11.4888 49.7929 13.3499C49.2455 14.3672 48.6731 15.3598 48.1506 16.3772C48.0013 16.6749 47.8769 17.0471 47.8271 17.3697C47.7773 17.6675 47.9515 17.9156 48.2501 17.9901C48.4492 18.0397 48.6483 18.0893 48.8224 18.0893C50.1662 18.0397 51.5099 17.9156 52.8039 17.4938C54.4711 16.9231 55.7402 15.8809 56.5863 14.3176C57.8305 12.0347 59.0747 9.75186 60.294 7.46898C60.5179 7.07196 60.7419 6.89826 61.2147 6.89826C63.7529 6.89826 66.3159 6.87345 68.8541 6.84864C69.0034 6.84864 69.1278 6.84864 69.2771 6.84864C69.6504 6.87345 69.7748 7.04715 69.6255 7.39454C69.5757 7.54343 69.4762 7.66749 69.4015 7.81638C67.9085 10.5459 66.4403 13.2754 64.9473 16.0298C64.798 16.2779 64.6736 16.5509 64.5989 16.8486C64.4745 17.3201 64.6984 17.6675 65.1712 17.7916C65.3952 17.8412 65.644 17.8908 65.868 17.8908C68.8043 17.9404 71.7157 17.9653 74.6521 17.9901C74.7267 18.0893 74.8014 18.0893 74.9755 18.0397Z" fill="#1B3281"/>
<path d="M0.0744629 26.7495V25.5584C0.223767 25.5336 0.397955 25.5336 0.54726 25.5088C0.696564 25.5088 0.820983 25.5088 0.970287 25.5088H234.631C234.855 25.5088 235.079 25.5088 235.278 25.5088C235.577 25.5088 235.726 25.6329 235.751 25.9306C235.751 26.1788 235.751 26.4269 235.751 26.6254C235.676 26.6999 235.651 26.6999 235.651 26.7247C235.627 26.7247 235.627 26.7495 235.602 26.7495C235.477 26.7743 235.378 26.7991 235.253 26.7991C156.968 26.7991 78.6831 26.7991 0.397955 26.7991C0.298419 26.7991 0.223767 26.7743 0.0744629 26.7495Z" fill="#ED1C24"/>
<path d="M182.898 4.88842C182.997 4.6651 183.022 4.51621 183.097 4.39214C183.768 3.17626 184.465 1.9852 185.112 0.769316C185.286 0.446735 185.535 0.297852 185.908 0.297852C188.77 0.322665 191.632 0.297852 194.493 0.297852C194.618 0.297852 194.767 0.322665 194.941 0.347479C194.867 0.54599 194.792 0.67006 194.742 0.818943C194.145 2.03482 193.523 3.25071 192.926 4.4914C192.752 4.86361 192.528 5.01249 192.105 5.01249C189.243 4.98768 186.381 4.98768 183.52 4.96286C183.345 4.93805 183.171 4.91324 182.898 4.88842Z" fill="#1B3281"/>
<path d="M45.4382 34.4912C45.0401 36.2282 44.9156 37.9652 44.7912 39.7518H43.8207C44.2189 37.0471 44.617 34.392 45.0152 31.6873H45.9608C46.8566 33.4987 47.7524 35.3349 48.7478 37.32C49.8178 35.3845 50.7136 33.5483 51.6094 31.6873H52.5799C52.9034 34.3672 53.2518 37.0471 53.5753 39.7518H51.7836C51.6094 37.9652 51.4104 36.1786 51.2362 34.392C51.1864 34.392 51.1366 34.3672 51.0869 34.3672C51.0122 34.5409 50.9127 34.6897 50.838 34.8634C50.1662 36.253 49.4943 37.6426 48.8224 39.0322C48.7478 39.1811 48.698 39.3299 48.5985 39.454C48.5238 39.5781 48.3745 39.727 48.275 39.727C48.1506 39.727 48.0013 39.6029 47.9266 39.4788C47.7773 39.2555 47.6778 38.9825 47.5533 38.7344C46.9312 37.4441 46.3091 36.1786 45.6622 34.8883C45.6124 34.7394 45.5129 34.6153 45.4382 34.4912Z" fill="#1B3281"/>
<path d="M170.057 31.6626H171.003C171.899 33.4988 172.819 35.3351 173.79 37.3202C174.835 35.3847 175.756 33.5485 176.627 31.6874H177.597C177.921 34.3673 178.269 37.0224 178.593 39.7519H176.801C176.627 37.9653 176.428 36.1787 176.253 34.3921C176.204 34.3921 176.154 34.3673 176.104 34.3673C176.005 34.541 175.905 34.6899 175.83 34.8636C175.134 36.278 174.462 37.7172 173.765 39.1564C173.69 39.3053 173.641 39.4542 173.541 39.5782C173.392 39.8264 173.118 39.8264 172.969 39.603C172.894 39.479 172.819 39.3301 172.745 39.1812C172.048 37.7668 171.376 36.3772 170.679 34.9628C170.605 34.814 170.505 34.6651 170.356 34.5162C170.032 36.2532 169.858 37.9901 169.784 39.7519H168.813C169.261 37.072 169.659 34.3921 170.057 31.6626Z" fill="#1B3281"/>
<path d="M184.017 39.9999C183.52 39.9255 183.022 39.9007 182.549 39.7766C180.907 39.3548 179.787 38.0644 179.613 36.3523C179.538 35.6823 179.563 35.0123 179.762 34.3423C180.334 32.6302 181.604 31.6873 183.345 31.4639C184.092 31.3647 184.863 31.4143 185.585 31.5384C187.277 31.8361 188.248 32.9776 188.596 34.6153C189.243 37.593 187.202 39.9503 184.017 39.9999ZM186.804 35.4838C186.829 34.7146 186.68 33.9701 186.307 33.2753C186.008 32.6798 185.535 32.2828 184.888 32.1091C183.793 31.8361 182.474 32.2084 181.927 33.5731C181.554 34.5409 181.429 35.5334 181.529 36.5508C181.579 36.9726 181.678 37.4193 181.827 37.8163C182.226 38.7096 182.873 39.2803 183.918 39.3299C185.013 39.3796 185.784 38.9081 186.282 37.9404C186.655 37.1711 186.829 36.3523 186.804 35.4838Z" fill="#1B3281"/>
<path d="M11.7204 31.3896C12.019 31.4145 12.3923 31.4145 12.7655 31.4889C14.6816 31.8859 15.8512 33.3003 16.0005 35.3102C16.1746 37.7916 14.3581 39.8016 11.7702 39.9504C11.1232 39.9753 10.4513 39.9504 9.82922 39.8016C8.11222 39.4045 7.01733 38.015 6.86802 36.2035C6.66895 33.5485 8.36106 31.613 11.0485 31.4393C11.2227 31.4145 11.4218 31.3896 11.7204 31.3896ZM14.0844 35.4095C14.0595 34.6899 13.9351 33.9207 13.5369 33.2011C13.2134 32.6055 12.7158 32.2085 12.019 32.0596C10.7748 31.8115 9.67991 32.3326 9.20712 33.4988C8.68455 34.7643 8.58502 36.0795 8.95828 37.3946C9.30665 38.7097 10.2771 39.3797 11.596 39.2805C12.4172 39.2308 13.0144 38.809 13.4125 38.1142C13.9102 37.3202 14.0346 36.4269 14.0844 35.4095Z" fill="#1B3281"/>
<path d="M131.338 31.3896C131.636 31.4145 132.035 31.4145 132.433 31.4889C134.324 31.8859 135.493 33.3003 135.643 35.2606C135.842 37.8164 134 39.7767 131.462 39.9256C130.79 39.9753 130.094 39.9256 129.447 39.7519C127.73 39.3301 126.66 37.9653 126.51 36.1539C126.311 33.5485 128.028 31.5882 130.641 31.4145C130.84 31.4145 131.039 31.3896 131.338 31.3896ZM128.426 35.5336C128.377 36.7991 128.576 37.6179 128.974 38.2135C129.919 39.7023 132.184 39.603 132.955 38.2879C133.951 36.6254 134.05 34.8884 133.154 33.1514C132.881 32.6055 132.408 32.2333 131.786 32.0844C130.442 31.7619 129.322 32.3326 128.8 33.6229C128.501 34.3425 128.426 35.0869 128.426 35.5336Z" fill="#1B3281"/>
<path d="M212.883 40.0001C212.385 39.9256 211.887 39.876 211.415 39.7519C209.747 39.3053 208.702 38.0398 208.528 36.3028C208.254 33.6229 209.971 31.5634 212.684 31.4393C213.38 31.4145 214.077 31.4393 214.749 31.5882C216.093 31.8859 216.964 32.7792 217.387 34.0944C218.382 37.1217 216.366 39.9008 213.181 39.9753C213.082 39.9753 212.982 39.9753 212.883 39.9753V40.0001ZM215.719 35.6328C215.744 34.8388 215.62 34.0448 215.247 33.3251C214.948 32.7048 214.475 32.283 213.779 32.1093C212.435 31.7867 211.265 32.3574 210.768 33.6974C210.345 34.814 210.27 35.9802 210.494 37.1465C210.743 38.3376 211.564 39.479 213.231 39.3301C214.152 39.2557 214.774 38.7346 215.172 37.9405C215.545 37.1961 215.695 36.4269 215.719 35.6328Z" fill="#1B3281"/>
<path d="M95.032 31.3896C95.3306 31.4145 95.7288 31.4145 96.1269 31.4889C98.0181 31.8859 99.1876 33.3003 99.3369 35.2606C99.536 37.8164 97.6946 39.7767 95.1564 39.9256C94.4846 39.9753 93.7878 39.9256 93.1408 39.7519C91.3989 39.3301 90.3041 37.9157 90.2045 36.0795C90.0303 33.474 91.7473 31.5633 94.3353 31.3896C94.5343 31.4145 94.7334 31.3896 95.032 31.3896ZM92.1206 35.5336C92.0957 36.6998 92.1952 37.4939 92.668 38.2383C93.6136 39.7519 95.8781 39.6279 96.6495 38.3127C97.6448 36.6502 97.7444 34.9132 96.8485 33.1762C96.5748 32.6303 96.102 32.2581 95.4799 32.1093C94.1362 31.7867 93.0164 32.3574 92.4938 33.6477C92.2201 34.3425 92.1206 35.0869 92.1206 35.5336Z" fill="#1B3281"/>
<path d="M70.8448 31.3896C71.1434 31.4145 71.5664 31.4393 71.9895 31.5137C73.7313 31.9107 74.8511 33.1514 75.1 34.9132C75.523 38.015 73.1839 39.9008 70.7204 39.9504C70.0485 39.9753 69.3766 39.9256 68.7297 39.7023C67.1868 39.1812 66.3408 38.0894 66.0919 36.5013C65.9924 35.8562 66.0173 35.1862 66.1666 34.5658C66.6145 32.8537 68.0827 31.613 69.8992 31.4393C70.148 31.4145 70.4467 31.4145 70.8448 31.3896ZM67.9085 35.9306C67.8836 36.675 68.008 37.4442 68.4062 38.1638C69.3269 39.7519 71.6909 39.6527 72.4871 38.2383C73.383 36.6254 73.4825 34.9628 72.7111 33.3003C72.4125 32.68 71.9148 32.2581 71.2429 32.1093C69.949 31.8115 68.8541 32.3574 68.3315 33.5733C68.008 34.2929 67.9085 35.0869 67.9085 35.9306Z" fill="#1B3281"/>
<path d="M153.733 40C153.261 39.9256 152.788 39.9007 152.315 39.7767C150.623 39.3548 149.503 38.0397 149.379 36.3027C149.329 35.7568 149.329 35.1861 149.453 34.6402C149.827 32.8784 151.32 31.5881 153.161 31.4392C153.883 31.3896 154.654 31.3896 155.351 31.5137C157.093 31.861 158.188 33.1266 158.412 34.8635C158.81 37.8412 156.844 39.9752 153.733 40ZM151.27 35.8809C151.27 36.8735 151.444 37.5682 151.793 38.1638C152.713 39.7271 155.027 39.6526 155.824 38.2878C156.769 36.6501 156.869 34.9628 156.048 33.2506C155.749 32.6551 155.276 32.2581 154.604 32.1092C153.31 31.8114 152.216 32.3573 151.693 33.5732C151.369 34.2928 151.27 35.0869 151.27 35.8809Z" fill="#1B3281"/>
<path d="M26.8996 31.5881C28.2433 31.5881 29.5373 31.4889 30.8562 31.7122C31.6027 31.8363 32.1004 32.3077 32.2746 33.077C32.5234 34.1688 32.0506 35.0869 31.0055 35.5336C30.8562 35.608 30.682 35.6576 30.458 35.7569C31.3041 37.0968 32.1253 38.412 32.9713 39.7519C32.7971 39.7519 32.6727 39.7767 32.5483 39.7767C32.1999 39.7767 31.8266 39.7767 31.4783 39.8015C31.105 39.8512 30.9059 39.7271 30.7069 39.4045C30.1594 38.412 29.5871 37.4442 29.0148 36.4765C28.9152 36.3028 28.8157 36.1539 28.6415 35.8809C28.4922 36.6502 28.5668 37.2705 28.5668 37.8909C28.542 38.5112 28.5668 39.1068 28.5668 39.7767H26.9494C26.7752 39.3549 26.7503 32.2829 26.8996 31.5881ZM28.5668 35.4095C29.5871 35.5832 30.1594 35.3102 30.4083 34.5162C30.5824 33.9951 30.5576 33.474 30.4083 32.9281C30.3336 32.6303 30.1594 32.3822 29.8608 32.2829C29.4378 32.134 29.0148 32.0596 28.5668 32.2333V35.4095Z" fill="#1B3281"/>
<path d="M78.2851 36.0546V39.7767H76.6676C76.5432 39.3797 76.4934 32.6303 76.6178 31.6626C76.6925 31.6378 76.792 31.5881 76.8916 31.5881C78.0362 31.6129 79.156 31.6129 80.3007 31.6626C81.1965 31.7122 81.8435 32.2333 81.9928 32.9777C82.167 33.871 82.0177 34.7643 81.097 35.3102C80.8232 35.4591 80.5246 35.5832 80.1763 35.7321C81.0223 37.072 81.8435 38.3623 82.6895 39.7271C82.3163 39.7271 82.0177 39.7271 81.7191 39.7271C81.4205 39.7271 81.1219 39.8263 80.8232 39.7767C80.6739 39.7519 80.5246 39.5534 80.4251 39.3797C79.8777 38.4368 79.3302 37.4938 78.7828 36.5509C78.6832 36.3524 78.5588 36.1787 78.4344 36.005C78.4095 36.0298 78.3348 36.0298 78.2851 36.0546ZM78.3348 35.4095C79.5044 35.6328 80.1763 35.1365 80.2509 34.0447C80.2758 33.6725 80.226 33.3003 80.1514 32.9281C80.1016 32.5807 79.8528 32.3574 79.5293 32.2829C79.156 32.1837 78.7579 32.1092 78.3348 32.2333V35.4095Z" fill="#1B3281"/>
<path d="M102.472 36.0545V39.7766H100.88C100.73 39.3051 100.73 32.2331 100.855 31.6624C100.954 31.6376 101.079 31.6128 101.178 31.6128C102.273 31.6376 103.368 31.6376 104.463 31.6872C105.434 31.7369 106.056 32.3076 106.23 33.1513C106.404 34.0942 106.006 34.9875 105.185 35.4093C104.961 35.5334 104.712 35.6078 104.413 35.7319C104.762 36.4763 105.21 37.0967 105.633 37.7666C106.031 38.4118 106.454 39.057 106.902 39.7517C106.255 39.7766 105.682 39.8014 105.11 39.8262C104.836 39.851 104.737 39.6277 104.637 39.4292C104.065 38.4614 103.517 37.4689 102.945 36.5011C102.846 36.3274 102.746 36.1785 102.622 36.0049C102.572 36.0297 102.522 36.0297 102.472 36.0545ZM102.497 35.4341C103.592 35.6823 104.214 35.1364 104.388 34.4664C104.513 33.9701 104.513 33.4738 104.364 33.0024C104.289 32.7542 104.09 32.5061 103.891 32.382C103.468 32.1587 102.995 32.1091 102.522 32.258V35.4341H102.497Z" fill="#1B3281"/>
<path d="M137.235 31.5881C137.459 31.5881 137.658 31.6129 137.857 31.5881C138.156 31.5633 138.38 31.6873 138.579 31.9107C140.047 33.4988 141.515 35.0869 142.984 36.6749C143.133 36.8238 143.232 37.0223 143.431 37.1464C143.655 36.5261 143.556 35.9305 143.581 35.3598C143.606 34.7395 143.581 34.1439 143.581 33.5236C143.581 32.928 143.581 32.3325 143.581 31.7122H144.427V39.7271C143.83 39.9504 143.581 39.9007 143.183 39.4541C141.665 37.7916 140.147 36.1538 138.629 34.4913C138.48 34.3424 138.33 34.1936 138.106 33.9702C137.982 34.7146 138.057 35.335 138.032 35.9553C138.032 36.5757 138.032 37.1712 138.032 37.7916V39.7022H137.26C137.111 39.2804 137.061 32.3325 137.235 31.5881Z" fill="#1B3281"/>
<path d="M197.48 39.7519C196.907 39.9008 196.509 39.7271 196.136 39.3053C194.693 37.6676 193.199 36.0795 191.706 34.4666C191.557 34.3177 191.408 34.1688 191.159 33.9207C191.109 34.6899 191.134 35.3103 191.134 35.9306C191.134 36.551 191.134 37.1465 191.134 37.7668V39.6775H190.288V31.6378C190.91 31.5137 191.383 31.5385 191.856 32.0596C193.274 33.6725 194.767 35.211 196.21 36.7991C196.31 36.9232 196.434 37.0224 196.633 37.1961C196.733 36.5261 196.683 35.9306 196.683 35.3599C196.683 34.7395 196.683 34.144 196.683 33.5237V31.7122H197.455C197.604 32.1093 197.629 39.082 197.48 39.7519Z" fill="#1B3281"/>
<path d="M206.935 32.0844C206.811 32.5063 206.711 32.8288 206.587 33.2259C206.438 33.1018 206.338 33.0025 206.264 32.9033C205.218 31.6874 202.68 31.4889 201.635 33.5484C200.963 34.8388 200.864 36.1787 201.337 37.5187C201.834 39.0075 203.551 39.7271 204.994 39.1564C205.268 39.0571 205.393 38.8834 205.393 38.5857C205.368 37.8164 205.393 37.0472 205.393 36.2283H207.01C207.134 36.6254 207.159 38.6353 207.035 39.4293C205.492 39.876 203.924 40.1986 202.307 39.7767C199.918 39.1564 198.798 37.4442 199.221 34.8884C199.47 33.3996 200.341 32.3822 201.735 31.8363C203.228 31.2407 204.771 31.2407 206.264 31.8115C206.512 31.8611 206.711 31.9603 206.935 32.0844Z" fill="#1B3281"/>
<path d="M17.5681 31.6377H19.2602C19.2851 31.8362 19.31 32.0347 19.31 32.258C19.31 33.4987 19.31 34.7642 19.3349 36.0049C19.3349 36.5508 19.3846 37.1216 19.4842 37.6675C19.6335 38.536 20.3054 39.1315 21.2012 39.2059C22.6693 39.3548 23.6398 38.536 23.7891 36.9975C23.8389 36.3772 23.8389 35.7816 23.8638 35.1613C23.8638 34.2183 23.8638 33.3002 23.8638 32.3573C23.8638 32.134 23.8887 31.9355 23.9135 31.6873H24.6849C24.7098 31.861 24.7347 32.0099 24.7347 32.1836C24.7347 33.598 24.7347 34.9876 24.7347 36.402C24.7347 36.5508 24.7347 36.7245 24.7098 36.8734C24.6103 38.6352 23.59 39.7767 21.8233 39.9255C21.1514 39.9752 20.4547 39.9255 19.8077 39.8015C18.4142 39.4789 17.6428 38.5111 17.593 37.0223C17.5432 35.8561 17.5681 34.6898 17.5681 33.5236C17.5681 32.9032 17.5681 32.3077 17.5681 31.6377Z" fill="#1B3281"/>
<path d="M85.6259 36.1785V39.7517H84.0333C83.884 39.3547 83.8343 32.4565 83.9836 31.6872C84.0334 31.6624 84.0831 31.6128 84.1329 31.6128C85.3273 31.6376 86.5218 31.588 87.6913 31.6872C88.8111 31.7865 89.4083 32.5557 89.3834 33.6723C89.3585 34.8882 88.8111 35.6326 87.6166 35.9552C87.318 36.0297 86.9945 36.1041 86.6711 36.1289C86.3724 36.1785 86.049 36.1785 85.6259 36.1785ZM85.6757 35.5086C86.6711 35.6575 87.3927 35.2108 87.542 34.3423C87.5918 33.9949 87.5918 33.6227 87.542 33.2753C87.3678 32.3076 86.6462 31.9354 85.6757 32.258V35.5086Z" fill="#1B3281"/>
<path d="M231.795 31.5632H232.715C233.81 34.2679 234.88 36.9727 236 39.7518H234.059C233.984 39.5533 233.885 39.3052 233.81 39.0322C233.636 38.5608 233.487 38.0893 233.337 37.6178C233.263 37.3449 233.089 37.2456 232.815 37.2456C232.118 37.2456 231.421 37.2456 230.725 37.2456C230.426 37.2456 230.252 37.3697 230.177 37.6675C229.953 38.3374 229.704 39.0074 229.48 39.7022H228.46C229.555 36.9727 230.675 34.2679 231.795 31.5632ZM231.869 33.8709C231.819 33.8709 231.77 33.8709 231.695 33.8709C231.347 34.7642 230.924 35.6327 230.65 36.5756C231.496 36.6997 232.442 36.6749 232.865 36.5012C232.541 35.6079 232.218 34.7394 231.869 33.8709Z" fill="#1B3281"/>
<path d="M108.469 39.7022H107.449C108.594 36.9478 109.714 34.2431 110.808 31.5632H111.704C112.799 34.2679 113.894 36.9727 115.014 39.7766H113.048C112.949 39.4541 112.824 39.1067 112.725 38.7841C112.6 38.4367 112.501 38.1141 112.376 37.7667C112.202 37.2952 112.202 37.2704 111.704 37.2704C111.057 37.2704 110.385 37.2704 109.738 37.2704C109.44 37.2704 109.266 37.3697 109.166 37.6675C108.942 38.3374 108.718 39.0074 108.469 39.7022ZM111.903 36.6005C111.58 35.6327 111.232 34.7394 110.784 33.8709C110.361 34.7394 109.962 35.6327 109.639 36.6005C110.435 36.6749 111.132 36.6749 111.903 36.6005Z" fill="#1B3281"/>
<path d="M64.8229 38.4616C64.8478 38.5361 64.8726 38.5609 64.8726 38.5609C64.6736 39.6031 64.7482 39.5038 63.7778 39.7768C62.8322 40.0497 61.8368 40.0249 60.8912 39.7768C58.7014 39.2309 57.4821 37.2954 57.8802 35.0125C58.2535 32.9033 59.7465 31.5385 61.9115 31.4145C62.6082 31.3897 63.3298 31.4641 64.0515 31.5634C64.3501 31.5882 64.6487 31.7619 64.9971 31.9108C64.8975 32.3326 64.8229 32.7048 64.7482 33.077C64.6985 33.1018 64.6238 33.1266 64.574 33.1763C64.4745 33.0274 64.3999 32.8537 64.2754 32.7296C63.1308 31.6378 61.3889 31.8363 60.4931 33.1266C59.871 34.0199 59.7217 35.0125 59.7465 36.0547C59.7714 36.4517 59.8212 36.8487 59.9456 37.2209C60.5677 39.479 62.8819 39.7271 64.2754 38.8586C64.4496 38.7594 64.6238 38.6105 64.8229 38.4616Z" fill="#1B3281"/>
<path d="M38.2218 37.9155C38.3463 38.1388 38.396 38.2629 38.4707 38.387C38.9186 39.2306 39.7149 39.454 40.5609 39.2555C41.5563 39.0073 41.83 37.7914 41.0835 37.0967C40.8844 36.923 40.6356 36.7741 40.3867 36.65C39.914 36.4019 39.4163 36.1785 38.9684 35.8808C38.0725 35.3101 37.7242 34.4168 37.9481 33.3498C38.1472 32.3572 38.8688 31.6376 39.8642 31.4639C40.4863 31.3646 41.1333 31.3398 41.7554 31.5383C42.0042 31.6128 42.2531 31.7617 42.5268 31.8857C42.4024 32.3076 42.2779 32.655 42.1286 33.1016C41.9793 32.9031 41.9047 32.7542 41.8051 32.6302C41.3323 32.0098 40.4614 31.8113 39.7895 32.2083C39.1426 32.5805 39.043 33.6227 39.69 34.0694C40.0881 34.3423 40.5112 34.5408 40.9342 34.789C41.3572 35.0371 41.7803 35.3101 42.1784 35.6078C43.2484 36.3771 43.0742 38.1885 42.4024 38.9329C41.3821 40.0495 39.2172 40.3225 37.9232 39.4292C37.973 38.9825 38.0974 38.511 38.2218 37.9155Z" fill="#1B3281"/>
<path d="M161.696 35.0124C162.592 35.2109 163.463 34.9876 164.359 35.0124V35.8561H161.696C161.597 37.1464 161.696 38.4367 161.622 39.7767H160.004C159.88 39.33 159.855 32.258 160.004 31.6377H164.359V32.4814C163.488 32.4566 162.592 32.4317 161.696 32.3821V35.0124Z" fill="#1B3281"/>
<path d="M3.93167 39.7517H2.18979V32.3572C1.41839 32.4068 0.721636 32.4317 0 32.4813V31.6128H5.99705C5.99705 31.7617 6.02193 31.8857 6.02193 32.0098C6.02193 32.1339 6.02193 32.2828 6.02193 32.4813C5.32518 32.4317 4.65331 32.4068 3.93167 32.3572V39.7517Z" fill="#1B3281"/>
<path d="M117.776 32.3573C117.005 32.4069 116.333 32.4566 115.636 32.4814V31.6377H121.608V32.4317C120.961 32.6303 120.264 32.258 119.543 32.4566V39.7767H117.826C117.776 39.1811 117.801 38.5856 117.801 37.9652C117.801 37.3449 117.801 36.7494 117.801 36.129V34.2928V32.3573H117.776Z" fill="#1B3281"/>
<path d="M220.846 31.6377V38.9082C221.766 38.9826 222.662 38.933 223.558 38.7841V39.7022C222.09 39.7518 220.647 39.727 219.154 39.727V31.6377H220.846Z" fill="#1B3281"/>
<path d="M124.818 31.6626H123.176V39.7519H124.818V31.6626Z" fill="#1B3281"/>
<path d="M34.4893 31.6377H36.1067V39.7518H34.5142C34.3897 39.33 34.3649 32.3325 34.4893 31.6377Z" fill="#1B3281"/>
<path d="M226.992 31.6626H225.35V39.7519H226.992V31.6626Z" fill="#1B3281"/>
</svg>
